<?xml version="1.0" encoding="utf-8"?>
<svg version="1.1" xmlns:xlink="http://www.w3.org/1999/xlink" width="50px" height="39px" xmlns="http://www.w3.org/2000/svg">
  <g transform="matrix(1 0 0 1 -54 -22 )">
    <path d="M 23.318385650224215 29.25  L 24.887892376681613 29.25  L 28.139013452914796 26.036931818181817  L 23.878923766816143 21.826704545454543  L 20.62780269058296 25.03977272727273  L 20.62780269058296 26.590909090909093  L 23.318385650224215 26.590909090909093  L 23.318385650224215 29.25  Z M 37.19170403587444 10.220880681818182  C 37.50934230194321 9.906960227272723  37.5186846038864 9.602272727272723  37.219730941704036 9.306818181818182  C 36.92077727952168 9.011363636363633  36.61248131539612 9.020596590909088  36.294843049327355 9.334517045454547  L 26.48542600896861 19.029119318181817  C 26.16778774289985 19.343039772727273  26.15844544095665 19.64772727272727  26.45739910313901 19.943181818181817  C 26.756352765321378 20.238636363636363  27.064648729446937 20.229403409090903  27.3822869955157 19.915482954545457  L 37.19170403587444 10.220880681818182  Z M 38.90134529147982 24.956676136363637  C 39.27503736920778 25.104403409090903  39.46188340807175 25.372159090909093  39.46188340807175 25.759943181818183  L 39.46188340807175 31.02272727272727  C 39.46188340807175 33.22017045454545  38.67245889387145 35.09907670454545  37.09360986547085 36.65944602272727  C 35.514760837070256 38.21981534090909  33.6136023916293 39  31.390134529147986 39  L 8.071748878923767 39  C 5.848281016442452 39  3.9471225710014948 38.21981534090909  2.368273542600897 36.65944602272727  C 0.7894245142002989 35.09907670454545  0 33.22017045454545  0 31.02272727272727  L 0 7.977272727272728  C 0 5.7798295454545405  0.7894245142002989 3.9009232954545436  2.368273542600897 2.340553977272729  C 3.9471225710014948 0.7801846590909053  5.848281016442452 0  8.071748878923767 0  L 31.390134529147986 0  C 32.56726457399103 0  33.66031390134529 0.23082386363636154  34.66928251121077 0.6924715909090889  C 34.949551569506724 0.8217329545454519  35.1177130044843 1.0340909090909083  35.1737668161435 1.3295454545454533  C 35.22982062780269 1.6434659090909083  35.1457399103139 1.911221590909089  34.921524663677125 2.1328125  L 33.5482062780269 3.490056818181818  C 33.28662182361734 3.7485795454545436  32.98766816143498 3.822443181818182  32.65134529147982 3.711647727272729  C 32.22159940209268 3.600852272727271  31.80119581464873 3.5454545454545467  31.390134529147986 4  L 8.071748878923767 4  C 6.838565022421525 3.5454545454545467  5.782884902840061 3.979403409090905  4.904708520179373 4.847301136363636  C 4.026532137518686 5.7151988636363615  3.587443946188341 6.758522727272728  4 7.977272727272728  L 4 31.02272727272727  C 3.587443946188341 32.24147727272727  4.026532137518686 33.28480113636363  4.904708520179373 34.15269886363637  C 5.782884902840061 35.02059659090909  6.838565022421525 35.45454545454545  8.071748878923767 35  L 31.390134529147986 35  C 32.62331838565022 35.45454545454545  33.67899850523169 35.02059659090909  34.55717488789238 34.15269886363637  C 35.43535127055307 33.28480113636363  35.874439461883405 32.24147727272727  35.874439461883405 31.02272727272727  L 35.874439461883405 27.532670454545457  C 35.874439461883405 27.292613636363633  35.9585201793722 27.089488636363637  36.12668161434978 26.923295454545457  L 37.92040358744394 25.150568181818183  C 38.20067264573991 24.873579545454543  38.527653213751876 24.808948863636363  38.90134529147982 24.956676136363637  Z M 17.937219730941703 23.931818181818183  L 36.771300448430495 5.3181818181818175  L 44.843049327354265 13.295454545454547  L 26.00896860986547 31.909090909090907  L 17.937219730941703 31.909090909090907  L 17.937219730941703 23.931818181818183  Z M 50 7.090909090909089  C 50 7.8295454545454515  49.738415545590435 8.457386363636362  49.2152466367713 8.974431818181818  L 46.63677130044843 11.522727272727272  L 38.56502242152467 3.5454545454545467  L 41.143497757847534 0.9971590909090889  C 41.66666666666667 0.4801136363636327  42.30194319880419 0.22159090909091106  43.04932735426009 0.22159090909091106  C 43.796711509716 0.22159090909091106  44.431988041853515 0.4801136363636327  44.955156950672645 0.9971590909090889  L 49.2152466367713 5.207386363636364  C 49.738415545590435 5.724431818181812  50 6.352272727272726  50 7.090909090909089  Z " fill-rule="nonzero" fill="#ff7200" stroke="none" transform="matrix(1 0 0 1 54 22 )" />
  </g>
</svg>